<svg width="138" height="140" viewBox="0 0 138 140" fill="none" xmlns="http://www.w3.org/2000/svg">
<g id="Group">
<path id="Vector" fill-rule="evenodd" clip-rule="evenodd" d="M47.5358 5.20998C83.7158 -6.61002 122.626 13.14 134.446 49.32C146.266 85.5 126.516 124.41 90.3358 136.23C54.1558 148.05 15.2458 128.3 3.42579 92.12C-8.39421 55.93 11.3558 17.02 47.5358 5.20998Z" fill="#1D71B8"/>
<g id="Group_2">
<path id="Vector_2" fill-rule="evenodd" clip-rule="evenodd" d="M36.366 80.3201C60.696 80.2501 77.476 77.0201 86.696 70.6101C93.496 96.3001 88.536 113.21 63.606 127C72.346 111.54 59.076 94.5601 43.806 89.94C38.066 88.2001 28.606 85.62 27.206 78.84C26.556 75.66 28.666 73.51 29.576 70.44C30.356 67.79 28.086 66.1001 26.836 63.7501C26.196 62.5501 26.596 61.2801 27.046 59.8501C25.626 59.3001 25.716 57.8101 26.766 55.5301C27.906 53.2501 28.816 51.49 27.476 50.15C24.866 47.78 22.246 44.7801 21.576 42.7401C20.966 40.8501 21.186 39.09 22.226 37.47C27.366 35.17 32.196 32.71 36.706 30.09C43.606 26.08 44.366 27.07 46.236 19.8701C48.356 11.7501 52.246 5.44005 57.926 2.05005C54.166 13.26 46.976 39.3501 36.366 80.3201Z" fill="#005CA9"/>
<path id="Vector_3" fill-rule="evenodd" clip-rule="evenodd" d="M65.6459 126.02C90.3659 114.08 94.9359 85.59 86.2058 67.85C64.5958 49.36 59.2558 31.36 59.2158 0C52.4258 9.76 49.1058 13.02 47.5258 24.73C44.9458 28.25 37.7258 32.95 25.8658 38.81C23.5758 40.78 24.8158 43.26 27.5158 46.36C28.5558 47.46 29.3658 48.32 29.9458 48.94C31.9958 51.11 30.7958 52.48 29.2358 55.31C28.4658 56.95 28.9458 58.36 30.6558 59.55C28.2058 61.41 27.8958 63.02 29.7258 64.37C32.4458 67.09 32.5558 70.1 30.0558 73.39C24.6258 82.52 33.6658 84.08 40.3358 84.98C55.6858 87.05 76.5258 85.31 83.9558 73.87C79.4858 84.12 67.9158 89.97 48.9658 89.41C62.6058 92.64 73.8759 109.43 65.6459 126.02Z" fill="white"/>
<path id="Vector_4" fill-rule="evenodd" clip-rule="evenodd" d="M25.0063 39.8501C24.0363 41.6401 25.2763 43.7801 27.5163 46.3701C28.2963 47.1901 28.9463 47.8801 29.4663 48.4401C31.9463 51.0701 31.3263 51.5401 29.2363 55.3101C28.4663 56.9501 28.9463 58.3601 30.6563 59.5501C28.2063 61.4101 27.8963 63.0201 29.7263 64.3701C32.4463 67.0901 32.5563 70.1001 30.0563 73.3901C29.8863 73.6701 29.7363 73.9401 29.5963 74.2101C33.2163 70.7901 34.0863 67.6401 32.2163 64.7501C29.8763 63.0701 29.5963 61.3201 31.3663 59.5101C29.8363 58.2701 28.6763 57.1001 30.7963 53.9801C31.6363 52.4101 32.1763 51.6901 32.2163 50.5801C32.3363 47.3501 24.7063 44.4001 25.0063 39.8501Z" fill="#E7E6E7"/>
<path id="Vector_5" fill-rule="evenodd" clip-rule="evenodd" d="M60.9761 31.58C58.5361 37.94 44.4661 33.46 42.9961 31.86C46.6261 31.18 47.0561 29.95 47.8061 29.25C52.9361 31.18 58.0761 32.09 60.9761 31.58Z" fill="#E7E6E7"/>
<path id="Vector_6" fill-rule="evenodd" clip-rule="evenodd" d="M74.2862 120.57C91.3262 106.84 93.7962 83.28 86.1962 67.85C65.6562 50.27 59.8162 33.13 59.2562 4.54004C54.7362 26.54 59.7962 48.29 80.8162 68C89.3162 78.12 88.7962 105.81 74.2862 120.57Z" fill="#E7E6E7"/>
<path id="Vector_7" fill-rule="evenodd" clip-rule="evenodd" d="M31.4159 71.05C31.1159 71.81 30.6659 72.58 30.0659 73.38C24.6359 82.51 33.6759 84.07 40.3459 84.97C55.6959 87.04 76.5359 85.3 83.9759 73.86C79.5059 84.11 67.9359 89.96 48.9859 89.4C49.0359 89.41 49.0859 89.43 49.1359 89.44C75.1959 89.74 86.7959 82.59 83.9559 68C83.7059 76.81 68.5959 81.28 54.4859 82.31C40.2259 83.35 26.7059 80.84 32.0959 70.55C31.8459 70.71 31.6259 70.88 31.4159 71.05Z" fill="#E7E6E7"/>
<path id="Vector_8" fill-rule="evenodd" clip-rule="evenodd" d="M82.1161 77.2501C76.7061 85.3801 65.7261 89.8901 48.9761 89.4001C62.4561 92.6101 73.6061 109.03 65.9361 125.42C78.7961 116.35 64.6461 95.5701 68.6361 93.9201C75.1661 89.5501 80.2661 83.3601 83.9361 75.3601C83.3661 76.0101 82.7561 76.6401 82.1161 77.2501Z" fill="#E7E6E7"/>
<path id="Vector_9" fill-rule="evenodd" clip-rule="evenodd" d="M58.7261 32.4099C54.5861 32.0699 51.1861 31.0799 47.7061 29.4299C46.7161 30.8099 45.2061 31.6099 43.0161 31.7799C44.9461 32.7999 56.9061 34.9899 58.7261 32.4099Z" fill="#36A9E1"/>
<path id="Vector_10" fill-rule="evenodd" clip-rule="evenodd" d="M67.6761 7.32007C69.4161 32.7801 86.3561 61.0201 117.236 76.7901C86.2761 69.0601 61.2661 38.0901 67.6761 7.32007Z" fill="white"/>
<path id="Vector_11" fill-rule="evenodd" clip-rule="evenodd" d="M95.6158 72.03C97.4958 73.36 100.206 75.3 102.716 75.97C112.276 122.15 64.1858 145.91 35.4458 133.55C70.4458 139.36 107.766 111.6 95.6158 72.03Z" fill="white"/>
<path id="Vector_12" fill-rule="evenodd" clip-rule="evenodd" d="M104.976 124.5C119.116 112.8 124.626 99.41 122.626 85.4C118.256 54.65 87.2659 45.81 80.8159 5.78003C89.3159 30.58 107.746 45.08 118.626 58.51C137.936 82.32 127.836 111.17 104.976 124.5Z" fill="white"/>
<path id="Vector_13" fill-rule="evenodd" clip-rule="evenodd" d="M36.5258 127.27C43.0658 107.26 -34.6942 35.5099 47.6258 4.62988C-24.9242 40.6199 51.9258 101.1 36.5258 127.27Z" fill="white"/>
<path id="Vector_14" fill-rule="evenodd" clip-rule="evenodd" d="M48.5161 7.48999C27.3161 21.53 18.4361 40.8 21.8761 65.3C11.5861 39.07 21.6261 19.42 48.5161 7.48999Z" fill="#005CA9"/>
<path id="Vector_15" fill-rule="evenodd" clip-rule="evenodd" d="M94.2759 11.75C114.836 29.26 127.586 52.21 132.526 80.61C133.916 49.86 121.166 26.91 94.2759 11.75Z" fill="#36A9E1"/>
<path id="Vector_16" fill-rule="evenodd" clip-rule="evenodd" d="M30.656 122.68C16.246 104.13 7.93603 80.7999 5.71603 52.6899C1.85603 83.3699 10.166 106.7 30.656 122.68Z" fill="#36A9E1"/>
<path id="Vector_17" fill-rule="evenodd" clip-rule="evenodd" d="M110.006 77.3401C120.706 104.33 105.326 131.04 74.5859 135.43C99.6559 127.66 111.426 109.99 110.006 77.3401Z" fill="#36A9E1"/>
<path id="Vector_18" fill-rule="evenodd" clip-rule="evenodd" d="M73.3062 11.1799C83.2562 36.2199 96.0062 55.2999 111.556 68.4199C88.9462 53.7399 76.1962 34.6599 73.3062 11.1799Z" fill="#36A9E1"/>
<path id="Vector_19" fill-rule="evenodd" clip-rule="evenodd" d="M60.3462 134.44C89.6062 128.42 107.736 104.55 99.4462 77.2C102.736 106.55 89.6962 125.63 60.3462 134.44Z" fill="#E7E6E7"/>
<path id="Vector_20" fill-rule="evenodd" clip-rule="evenodd" d="M67.7061 17.4099C69.5961 42.0999 82.626 60.1399 106.806 71.5299C84.426 58.1499 71.1261 39.4699 67.7061 17.4099Z" fill="#E7E6E7"/>
<path id="Vector_21" fill-rule="evenodd" clip-rule="evenodd" d="M118.356 111.7C138.966 70.97 102.196 55.22 89.4561 26.98C107.026 53.97 142.376 76.35 118.356 111.7Z" fill="#E7E6E7"/>
<path id="Vector_22" fill-rule="evenodd" clip-rule="evenodd" d="M17.2061 27.1201C8.73613 44.1401 12.4261 68.0401 28.2561 98.8101C9.37614 66.1601 5.69613 42.2601 17.2061 27.1201Z" fill="#E7E6E7"/>
</g>
</g>
</svg>
